<svg width="800" height="470" viewBox="0 0 800 470" xmlns="http://www.w3.org/2000/svg">
  <defs>
    <linearGradient id="bg" x1="0%" y1="0%" x2="100%" y2="100%">
      <stop offset="0%" stop-color="#03070f"/>
      <stop offset="45%" stop-color="#0c1526"/>
      <stop offset="100%" stop-color="#132a5e"/>
    </linearGradient>
    <linearGradient id="scanGrad" x1="0%" y1="0%" x2="0%" y2="100%">
      <stop offset="0%" stop-color="#60a5fa" stop-opacity="0"/>
      <stop offset="50%" stop-color="#60a5fa" stop-opacity="0.85"/>
      <stop offset="100%" stop-color="#60a5fa" stop-opacity="0"/>
    </linearGradient>
    <clipPath id="photoClip">
      <rect x="558" y="52" width="222" height="168" rx="8"/>
    </clipPath>
    <pattern id="scanlines" width="8" height="3" patternUnits="userSpaceOnUse">
      <rect width="8" height="1.2" fill="#60a5fa" opacity="0.08"/>
    </pattern>
  </defs>

  <rect width="800" height="470" fill="#03070f"/>
  <rect x="10" y="10" width="780" height="450" rx="10" fill="url(#bg)" stroke="#1e3a8a" stroke-width="1.2"/>

  <circle cx="32" cy="30" r="4.5" fill="#f87171"/>
  <circle cx="48" cy="30" r="4.5" fill="#fbbf24"/>
  <circle cx="64" cy="30" r="4.5" fill="#4ade80"/>
  <text x="758" y="34" font-family="monospace" font-size="11" fill="#3b82f6" text-anchor="end">faaeq@dev ~ %</text>

  <!-- top-left info panel: y 52 to 220 -->
  <rect x="20" y="52" width="520" height="168" rx="8" fill="none" stroke="#1e3a8a" stroke-opacity="0.6" stroke-width="1"/>

  <line x1="20" y1="86" x2="540" y2="86" stroke="#1e3a8a" stroke-opacity="0.4"/>
  <line x1="20" y1="120" x2="540" y2="120" stroke="#1e3a8a" stroke-opacity="0.4"/>
  <line x1="20" y1="154" x2="540" y2="154" stroke="#1e3a8a" stroke-opacity="0.4"/>
  <line x1="20" y1="188" x2="540" y2="188" stroke="#1e3a8a" stroke-opacity="0.4"/>

  <text x="34" y="74" font-family="monospace" font-size="12" fill="#5f7aa8">Uni</text>
  <text x="106" y="74" font-family="monospace" font-size="11" fill="#93c5fd">|</text>
  <text x="126" y="74" font-family="monospace" font-size="12.5" fill="#dbeafe">University of Westminster</text>

  <text x="34" y="108" font-family="monospace" font-size="12" fill="#5f7aa8">Focus</text>
  <text x="106" y="108" font-family="monospace" font-size="11" fill="#93c5fd">|</text>
  <text x="126" y="108" font-family="monospace" font-size="12.5" fill="#dbeafe">Full Stack + AI/ML</text>

  <text x="34" y="142" font-family="monospace" font-size="12" fill="#5f7aa8">Currently</text>
  <text x="106" y="142" font-family="monospace" font-size="11" fill="#93c5fd">|</text>
  <text x="126" y="142" font-family="monospace" font-size="12.5" fill="#dbeafe">Exploring smarter, more capable systems</text>

  <text x="34" y="176" font-family="monospace" font-size="12" fill="#5f7aa8">Toolbox</text>
  <text x="106" y="176" font-family="monospace" font-size="11" fill="#93c5fd">|</text>
  <text x="126" y="176" font-family="monospace" font-size="12.5" fill="#dbeafe">React · Next.js · .NET · Spring Boot · Python</text>

  <text x="34" y="209" font-family="monospace" font-size="12" fill="#5f7aa8">Status</text>
  <text x="106" y="209" font-family="monospace" font-size="11" fill="#93c5fd">|</text>
  <text x="126" y="209" font-family="monospace" font-size="12.5" fill="#4ade80">available for opportunities</text>

  <!-- right photo panel: y 52 to 220, same as left panel -->
  <rect x="558" y="52" width="222" height="168" rx="8" fill="#060b14" stroke="#1e3a8a" stroke-opacity="0.6" stroke-width="1"/>

  <g clip-path="url(#photoClip)">
    <image href="https://avatars.githubusercontent.com/u/187956147?v=4&amp;s=440" x="558" y="52" width="222" height="168" preserveAspectRatio="xMidYMid slice"/>
    <rect x="558" y="52" width="222" height="168" fill="url(#scanlines)"/>
    <rect x="558" y="16" width="222" height="36" fill="url(#scanGrad)">
      <animate attributeName="y" values="16;184;16" dur="2.6s" repeatCount="indefinite"/>
    </rect>
  </g>

  <!-- bottom panel: tech stack + achievements, y 236 to 412 -->
  <rect x="20" y="236" width="760" height="176" rx="8" fill="none" stroke="#1e3a8a" stroke-opacity="0.6" stroke-width="1"/>

  <text x="34" y="260" font-family="monospace" font-size="12.5" fill="#60a5fa">$ cat tech_stack.json</text>

  <g font-family="monospace" font-size="10.5">
    <rect x="34" y="270" width="52" height="20" rx="4" fill="#60a5fa" fill-opacity="0.12" stroke="#60a5fa" stroke-opacity="0.3"/>
    <text x="60" y="284" fill="#93c5fd" text-anchor="middle">React</text>

    <rect x="92" y="270" width="66" height="20" rx="4" fill="#60a5fa" fill-opacity="0.12" stroke="#60a5fa" stroke-opacity="0.3"/>
    <text x="125" y="284" fill="#93c5fd" text-anchor="middle">Next.js</text>

    <rect x="164" y="270" width="52" height="20" rx="4" fill="#60a5fa" fill-opacity="0.12" stroke="#60a5fa" stroke-opacity="0.3"/>
    <text x="190" y="284" fill="#93c5fd" text-anchor="middle">.NET</text>

    <rect x="222" y="270" width="90" height="20" rx="4" fill="#60a5fa" fill-opacity="0.12" stroke="#60a5fa" stroke-opacity="0.3"/>
    <text x="267" y="284" fill="#93c5fd" text-anchor="middle">Spring Boot</text>

    <rect x="318" y="270" width="60" height="20" rx="4" fill="#60a5fa" fill-opacity="0.12" stroke="#60a5fa" stroke-opacity="0.3"/>
    <text x="348" y="284" fill="#93c5fd" text-anchor="middle">Python</text>

    <rect x="384" y="270" width="52" height="20" rx="4" fill="#60a5fa" fill-opacity="0.12" stroke="#60a5fa" stroke-opacity="0.3"/>
    <text x="410" y="284" fill="#93c5fd" text-anchor="middle">Java</text>

    <rect x="442" y="270" width="46" height="20" rx="4" fill="#60a5fa" fill-opacity="0.12" stroke="#60a5fa" stroke-opacity="0.3"/>
    <text x="465" y="284" fill="#93c5fd" text-anchor="middle">C#</text>

    <rect x="494" y="270" width="98" height="20" rx="4" fill="#60a5fa" fill-opacity="0.12" stroke="#60a5fa" stroke-opacity="0.3"/>
    <text x="543" y="284" fill="#93c5fd" text-anchor="middle">Tailwind CSS</text>

    <rect x="598" y="270" width="90" height="20" rx="4" fill="#60a5fa" fill-opacity="0.12" stroke="#60a5fa" stroke-opacity="0.3"/>
    <text x="643" y="284" fill="#93c5fd" text-anchor="middle">PostgreSQL</text>
  </g>

  <g font-family="monospace" font-size="10.5">
    <rect x="34" y="298" width="94" height="20" rx="4" fill="#60a5fa" fill-opacity="0.12" stroke="#60a5fa" stroke-opacity="0.3"/>
    <text x="81" y="312" fill="#93c5fd" text-anchor="middle">Scikit-learn</text>

    <rect x="136" y="298" width="66" height="20" rx="4" fill="#60a5fa" fill-opacity="0.12" stroke="#60a5fa" stroke-opacity="0.3"/>
    <text x="169" y="312" fill="#93c5fd" text-anchor="middle">Pandas</text>

    <rect x="210" y="298" width="82" height="20" rx="4" fill="#60a5fa" fill-opacity="0.12" stroke="#60a5fa" stroke-opacity="0.3"/>
    <text x="251" y="312" fill="#93c5fd" text-anchor="middle">Supabase</text>
  </g>

  <line x1="34" y1="330" x2="746" y2="330" stroke="#1e3a8a" stroke-opacity="0.4"/>

  <text x="34" y="352" font-family="monospace" font-size="12.5" fill="#60a5fa">$ cat achievements.log</text>

  <text x="34" y="376" font-family="monospace" font-size="11.5" fill="#fbbf24">🥇</text>
  <text x="56" y="376" font-family="monospace" font-size="11.5" fill="#dbeafe">Hult Prize Competitor — OnCampus Program</text>
  <text x="56" y="390" font-family="monospace" font-size="10" fill="#5f7aa8">Informatics Institute of Technology · 2025</text>

  <text x="404" y="376" font-family="monospace" font-size="11.5" fill="#4ade80">🔐</text>
  <text x="426" y="376" font-family="monospace" font-size="11.5" fill="#dbeafe">SDGP-Connect Auth Contributor</text>
  <text x="426" y="390" font-family="monospace" font-size="10" fill="#5f7aa8">Asgardeo login · IIT-SDGP · 2026</text>

  <!-- footer: clear of the bottom panel border at y 412 -->
  <text x="20" y="434" font-family="monospace" font-size="11" fill="#5f7aa8">scanning github.com/mdfaaeq...</text>
  <text x="766" y="434" font-family="monospace" font-size="11" fill="#4ade80" text-anchor="end">● live</text>
  <line x1="20" y1="444" x2="780" y2="444" stroke="#1e3a8a" stroke-opacity="0.35"/>
</svg>
